<svg xmlns="http://www.w3.org/2000/svg" width="49" height="49" fill="none"><path fill="#ECD979" d="M23.633.51a1 1 0 0 1 1.734 0l2.818 4.904a1 1 0 0 0 1.431.327l4.718-3.226a1 1 0 0 1 1.562.76l.366 5.578a1 1 0 0 0 1.154.922l5.65-.895a1 1 0 0 1 1.082 1.369l-2.123 5.144a1 1 0 0 0 .645 1.342l5.444 1.586a1 1 0 0 1 .386 1.706l-4.182 3.726a1 1 0 0 0 0 1.494l4.182 3.726a1 1 0 0 1-.386 1.706l-5.444 1.586a1 1 0 0 0-.645 1.342l2.123 5.144a1 1 0 0 1-1.081 1.37l-5.65-.896a1 1 0 0 0-1.155.922l-.366 5.578a1 1 0 0 1-1.563.76l-4.717-3.226a1 1 0 0 0-1.431.327l-2.818 4.905a1 1 0 0 1-1.734 0l-2.818-4.905a1 1 0 0 0-1.431-.327l-4.718 3.226a1 1 0 0 1-1.562-.76l-.366-5.578a1 1 0 0 0-1.154-.922l-5.65.895a1 1 0 0 1-1.082-1.369l2.123-5.144a1 1 0 0 0-.645-1.342L.886 30.68A1 1 0 0 1 .5 28.973l4.182-3.726a1 1 0 0 0 0-1.494L.5 20.027a1 1 0 0 1 .386-1.706l5.444-1.586a1 1 0 0 0 .645-1.342L4.852 10.25a1 1 0 0 1 1.081-1.37l5.65.896a1 1 0 0 0 1.155-.922l.366-5.578a1 1 0 0 1 1.563-.76l4.717 3.226a1 1 0 0 0 1.431-.327L23.633.509Z"/></svg>